<svg id="Layer_1" data-name="Layer 1" xmlns="http://www.w3.org/2000/svg" viewBox="0 0 3414.72 1052.16"><defs><style>.cls-1,.cls-7{font-size:782.28px;}.cls-1,.cls-7,.cls-8{fill:#003406;}.cls-1{font-family:CUTEFROG-Regular, CUTE FROG;}.cls-2{letter-spacing:-0.05em;}.cls-3{letter-spacing:0em;}.cls-4{letter-spacing:-0.02em;}.cls-5{letter-spacing:-0.03em;}.cls-6{fill:#ffb700;}.cls-7{font-family:BerlinSansFBDemi-Bold, Berlin Sans FB Demi;font-weight:700;}.cls-9{fill:#fea20f;}</style></defs><text class="cls-1" transform="translate(963.08 836.25)">i<tspan class="cls-2" x="157.23" y="0">e</tspan><tspan class="cls-3" x="484.22" y="0">t</tspan><tspan class="cls-4" x="902.74" y="0">r</tspan><tspan x="1283.71" y="0">y</tspan><tspan class="cls-5" x="1702.22" y="0">s</tspan><tspan class="cls-3" x="2033.12" y="0">t</tspan></text><path class="cls-6" d="M3303.75,731.27A42.47,42.47,0,0,1,3346,769.1c2.59,23.79-13.44,44.15-37.15,47.19-2.45.31-4.08-.45-4.94-2.31s-.39-3.48,1.49-5.23c9.47-8.79,14.42-19.65,14.07-32.56-.43-15.92-7.77-28-21.33-36.33a15.78,15.78,0,0,1-1.64-1,4.1,4.1,0,0,1,1.9-7.34c.75-.1,1.5-.22,2.24-.25C3301.67,731.24,3302.71,731.27,3303.75,731.27Z" transform="translate(-27.24 -274.32)"/><path class="cls-6" d="M978.71,713.42a74.13,74.13,0,0,1,66-73.72c41.53-4.52,77.08,23.47,82.38,64.87.55,4.27-.78,7.11-4,8.61s-6.07.69-9.12-2.6c-15.35-16.54-34.31-25.16-56.85-24.56-27.79.74-48.9,13.56-63.42,37.24a27.91,27.91,0,0,1-1.71,2.85,6.8,6.8,0,0,1-7.53,2.63,6.7,6.7,0,0,1-5.28-6c-.18-1.3-.39-2.6-.45-3.91C978.66,717.07,978.71,715.24,978.71,713.42Z" transform="translate(-27.24 -274.32)"/><text class="cls-7" transform="translate(269.52 779.25)">D</text><rect class="cls-8" x="439.05" y="923.36" width="50.31" height="424.73" transform="translate(1572.68 397.2) rotate(90)"/><rect class="cls-8" x="439.05" y="256.39" width="50.31" height="424.73" transform="translate(905.72 -269.76) rotate(90)"/><rect class="cls-8" x="251.83" y="450.57" width="50.31" height="685.15" transform="translate(526.73 1311.97) rotate(180)"/><path class="cls-8" d="M914.87,795.55c.38-270.64-237.38-352.35-237.38-352.35l-1.15,50.27s198.74,74.39,190.82,302.08c18.71,171.74-190.82,314.76-190.82,314.76v50.27S914.56,1018.7,914.87,795.55Z" transform="translate(-27.24 -274.32)"/><path class="cls-6" d="M201.26,559.39a106.38,106.38,0,0,1-141.82-7.63c-42.37-42.4-43-107.32-1.44-150.45,4.28-4.45,8.66-5.52,13.25-3.23s6.23,6.17,5.29,12.54c-4.71,32,2.68,61,23.61,85.68,25.79,30.42,59.1,42.52,98.64,37.49a38.65,38.65,0,0,1,4.73-.65c4.49-.06,7.86,1.93,9.7,6.06a9.61,9.61,0,0,1-1.9,11.25c-1.29,1.37-2.56,2.78-4,4C205.38,556.19,203.29,557.76,201.26,559.39Z" transform="translate(-27.24 -274.32)"/><path class="cls-9" d="M336.83,396.91A122.59,122.59,0,1,0,214.24,519.5V396.91Z" transform="translate(-27.24 -274.32)"/></svg>