<svg id="Layer_1" data-name="Layer 1" xmlns="http://www.w3.org/2000/svg" viewBox="0 0 3355.34 994.67"><defs><style>.cls-1,.cls-5{font-size:739.54px;}.cls-1,.cls-5,.cls-6{fill:#003406;}.cls-1{font-family:CUTEFROG-Regular, CUTE FROG;}.cls-2{letter-spacing:-0.05em;}.cls-3{letter-spacing:-0.03em;}.cls-4{fill:#ffb700;}.cls-5{font-family:BerlinSansFBDemi-Bold, Berlin Sans FB Demi;font-weight:700;}</style></defs><text class="cls-1" transform="translate(910.46 790.56)">i<tspan class="cls-2" x="148.64" y="0">e</tspan><tspan x="457.77" y="0">ta</tspan><tspan class="cls-3" x="1259.42" y="0">r</tspan><tspan x="1611.44" y="0">ies</tspan></text><path class="cls-4" d="M3383.34,1356.88a41.72,41.72,0,0,1-37.16,41.5c-23.38,2.54-43.38-13.21-46.37-36.51-.31-2.41.44-4,2.27-4.85s3.41-.39,5.13,1.46c8.64,9.31,19.32,14.17,32,13.83,15.64-.42,27.53-7.64,35.7-21a18.3,18.3,0,0,1,1-1.6,3.82,3.82,0,0,1,4.24-1.48,3.78,3.78,0,0,1,3,3.35c.1.73.22,1.46.25,2.2C3383.38,1354.83,3383.34,1355.86,3383.34,1356.88Z" transform="translate(-61.78 -822.76)"/><path class="cls-4" d="M961.26,1237.87a70.08,70.08,0,0,1,62.42-69.69c39.26-4.28,72.86,22.18,77.88,61.32.52,4-.74,6.73-3.81,8.14s-5.74.65-8.63-2.46c-14.5-15.63-32.43-23.79-53.74-23.22-26.27.71-46.22,12.83-60,35.21a28,28,0,0,1-1.62,2.7,6.41,6.41,0,0,1-7.11,2.48,6.34,6.34,0,0,1-5-5.62c-.17-1.23-.37-2.46-.42-3.7C961.21,1241.32,961.26,1239.59,961.26,1237.87Z" transform="translate(-61.78 -822.76)"/><text class="cls-5" transform="translate(254.79 736.67)">D</text><rect class="cls-6" x="451.08" y="1436.34" width="47.56" height="401.53" transform="translate(2050.18 339.48) rotate(90)"/><rect class="cls-6" x="451.08" y="805.81" width="47.56" height="401.53" transform="translate(1419.66 -291.04) rotate(90)"/><rect class="cls-6" x="274.09" y="989.38" width="47.56" height="647.72" transform="translate(533.97 1803.72) rotate(180)"/><path class="cls-6" d="M900.91,1315.51c.36-255.85-224.42-333.1-224.42-333.1l-1.08,47.53s187.88,70.32,180.39,285.57c17.69,162.36-180.39,297.56-180.39,297.56v47.53S900.61,1526.47,900.91,1315.51Z" transform="translate(-61.78 -822.76)"/><path class="cls-4" d="M226.28,1092.26a100.58,100.58,0,0,1-134.07-7.21c-40-40.09-40.64-101.46-1.36-142.24,4.05-4.21,8.19-5.22,12.53-3s5.89,5.83,5,11.86c-4.45,30.27,2.53,57.66,22.32,81,24.38,28.76,55.87,40.2,93.25,35.44a38.24,38.24,0,0,1,4.48-.61,9.2,9.2,0,0,1,9.16,5.73,9.05,9.05,0,0,1-1.8,10.63c-1.22,1.3-2.42,2.63-3.75,3.8C230.18,1089.23,228.21,1090.71,226.28,1092.26Z" transform="translate(-61.78 -822.76)"/><path class="cls-4" d="M354.45,938.65a115.89,115.89,0,1,0-115.89,115.89V938.65Z" transform="translate(-61.78 -822.76)"/></svg>